<?xml version="1.0" encoding="UTF-8" standalone="no"?>
<!-- Created with Inkscape (http://www.inkscape.org/) -->

<svg
   width="100mm"
   height="28.087999mm"
   viewBox="0 0 100 28.087999"
   version="1.1"
   id="svg8358"
   inkscape:version="1.1 (c4e8f9ed74, 2021-05-24)"
   sodipodi:docname="peeemtee.svg"
   xmlns:inkscape="http://www.inkscape.org/namespaces/inkscape"
   xmlns:sodipodi="http://sodipodi.sourceforge.net/DTD/sodipodi-0.dtd"
   xmlns="http://www.w3.org/2000/svg"
   xmlns:svg="http://www.w3.org/2000/svg">
  <sodipodi:namedview
     id="namedview8360"
     pagecolor="#ffffff"
     bordercolor="#666666"
     borderopacity="1.0"
     inkscape:pageshadow="2"
     inkscape:pageopacity="0.0"
     inkscape:pagecheckerboard="0"
     inkscape:document-units="mm"
     showgrid="false"
     inkscape:zoom="1.0897757"
     inkscape:cx="312.90843"
     inkscape:cy="243.16931"
     inkscape:window-width="1920"
     inkscape:window-height="1065"
     inkscape:window-x="1920"
     inkscape:window-y="15"
     inkscape:window-maximized="1"
     inkscape:current-layer="layer1"
     showguides="true"
     inkscape:guide-bbox="true"
     width="197.429mm" />
  <defs
     id="defs8355" />
  <g
     inkscape:label="Ebene 1"
     inkscape:groupmode="layer"
     id="layer1">
    <path
       d="m 0,13.318318 h 4.3276017 q 1.0470007,0 1.9544006,0.226849 0.9161257,0.218126 1.5879505,0.654374 0.6718255,0.436248 1.0557258,1.090627 0.3926252,0.654374 0.3926252,1.526876 0,0.881223 -0.3839004,1.535597 -0.3838999,0.654374 -1.0121005,1.090628 -0.6194749,0.436247 -1.4221751,0.654374 -0.8027004,0.218126 -1.6403009,0.218126 H 3.0624761 v 5.42695 H 0 Z m 3.0624761,5.871925 h 0.9946506 q 0.5147752,0 0.8986751,-0.183228 0.3926253,-0.19195 0.6456503,-0.514773 0.2617503,-0.322824 0.3839003,-0.741627 0.1308749,-0.427526 0.1308749,-0.889951 0,-0.558399 -0.1657749,-0.994647 Q 5.7846771,15.429764 5.4880272,15.133118 5.2001022,14.836466 4.8074769,14.679415 4.4148518,14.522364 3.9698766,14.522364 H 3.0624761 Z"
       id="path30896"
       style="font-size:35.2778px;line-height:1.25;font-family:'Tamil MN';-inkscape-font-specification:'Tamil MN';letter-spacing:0px;word-spacing:0px;stroke-width:0.134016" />
    <path
       d="m 15.13788,25.952118 q -1.003375,0 -1.8846,-0.366449 -0.8725,-0.375173 -1.526876,-1.003375 -0.654375,-0.628198 -1.02955,-1.457072 -0.375175,-0.837603 -0.375175,-1.762452 0,-1.108077 0.349,-2.050375 0.349,-0.951026 0.985925,-1.640305 0.636925,-0.697996 1.535601,-1.090622 0.898675,-0.392627 1.998026,-0.392627 0.9772,0 1.788625,0.314101 0.82015,0.305375 1.396001,0.855052 0.584574,0.54095 0.9074,1.273849 0.322825,0.724172 0.322825,1.561774 H 13.11368 q 0.02618,0.776526 0.218125,1.483249 0.200674,0.706728 0.532225,1.247678 0.33155,0.54095 0.776525,0.863775 0.444975,0.314101 0.985925,0.314101 0.47115,0 0.92485,-0.157051 0.453701,-0.165774 0.837601,-0.444975 0.3839,-0.287925 0.663101,-0.663102 0.279199,-0.375173 0.410074,-0.793976 l 1.457076,0.218127 q -0.218125,0.759077 -0.706725,1.4309 -0.479875,0.671824 -1.125526,1.177876 -0.64565,0.497328 -1.41345,0.793975 -0.759075,0.287924 -1.535601,0.287924 z m 1.204051,-6.726976 q -0.0349,-0.418799 -0.183226,-0.759077 -0.1396,-0.340272 -0.366449,-0.584571 -0.218125,-0.244304 -0.514775,-0.375177 -0.287926,-0.139601 -0.6282,-0.139601 -0.261751,0 -0.514776,0.130874 -0.253025,0.130878 -0.462425,0.375176 -0.2094,0.244299 -0.357725,0.593299 -0.1396,0.340278 -0.183225,0.759077 z"
       id="path30898"
       style="font-size:35.2778px;line-height:1.25;font-family:'Tamil MN';-inkscape-font-specification:'Tamil MN';letter-spacing:0px;word-spacing:0px;stroke-width:0.134016" />
    <path
       d="m 26.044135,25.952118 q -1.003375,0 -1.884601,-0.366449 -0.8725,-0.375173 -1.526875,-1.003375 -0.654376,-0.628198 -1.029551,-1.457072 -0.375175,-0.837603 -0.375175,-1.762452 0,-1.108077 0.349,-2.050375 0.349001,-0.951026 0.985926,-1.640305 0.636925,-0.697996 1.5356,-1.090622 0.898676,-0.392627 1.998025,-0.392627 0.977201,0 1.788626,0.314101 0.820151,0.305375 1.396001,0.855052 0.584575,0.54095 0.907401,1.273849 0.322824,0.724172 0.322824,1.561774 h -6.491401 q 0.02618,0.776526 0.218124,1.483249 0.200675,0.706728 0.532225,1.247678 0.331551,0.54095 0.776525,0.863775 0.444976,0.314101 0.985926,0.314101 0.47115,0 0.924851,-0.157051 0.4537,-0.165774 0.8376,-0.444975 0.3839,-0.287925 0.6631,-0.663102 0.2792,-0.375173 0.410076,-0.793976 l 1.457074,0.218127 q -0.218125,0.759077 -0.706725,1.4309 -0.479875,0.671824 -1.125524,1.177876 -0.645652,0.497328 -1.413452,0.793975 -0.759074,0.287924 -1.5356,0.287924 z m 1.20405,-6.726976 q -0.0349,-0.418799 -0.183224,-0.759077 -0.139601,-0.340272 -0.366451,-0.584571 -0.218125,-0.244304 -0.514776,-0.375177 -0.287924,-0.139601 -0.6282,-0.139601 -0.26175,0 -0.514774,0.130874 -0.253026,0.130878 -0.462425,0.375176 -0.209401,0.244299 -0.357726,0.593299 -0.1396,0.340278 -0.183225,0.759077 z"
       id="path30900"
       style="font-size:35.2778px;line-height:1.25;font-family:'Tamil MN';-inkscape-font-specification:'Tamil MN';letter-spacing:0px;word-spacing:0px;stroke-width:0.134016" />
    <path
       d="m 42.281365,13.318318 v 1.055723 h -6.229652 v 4.100752 h 5.173927 v 1.06445 h -5.173927 v 4.929626 h 6.229652 v 1.27385 H 33.006687 V 13.318318 Z"
       id="path30902"
       style="font-size:35.2778px;line-height:1.25;font-family:'Tamil MN';-inkscape-font-specification:'Tamil MN';letter-spacing:0px;word-spacing:0px;stroke-width:0.134016" />
    <path
       d="m 55.918541,19.382193 q 0,-0.314102 -0.07852,-0.593299 -0.0698,-0.279202 -0.209405,-0.488601 -0.130874,-0.2094 -0.314096,-0.331551 -0.183227,-0.122152 -0.401354,-0.122152 -0.244298,0 -0.514773,0.08725 -0.261747,0.07853 -0.523501,0.218127 -0.253025,0.139596 -0.488601,0.322824 -0.235576,0.183222 -0.401349,0.392626 v 6.8753 H 50.16004 v -6.360526 q 0,-0.314102 -0.08725,-0.593299 -0.07852,-0.279202 -0.218126,-0.488601 -0.139601,-0.2094 -0.322824,-0.331551 -0.183227,-0.122152 -0.375177,-0.122152 -0.226848,0 -0.4886,0.08725 -0.26175,0.07853 -0.5235,0.218127 -0.253025,0.139596 -0.497325,0.322824 -0.2443,0.183222 -0.436251,0.392626 v 6.8753 H 44.37536 v -9.361929 h 2.835625 v 0.802703 q 0.671826,-0.453702 1.387276,-0.724177 0.715451,-0.270475 1.378552,-0.270475 0.36645,0 0.741622,0.08725 0.375176,0.07852 0.71545,0.226848 0.349,0.148324 0.636925,0.375173 0.296652,0.218125 0.497329,0.488601 0.322824,-0.261748 0.706723,-0.479874 0.392627,-0.218127 0.811425,-0.36645 0.427526,-0.157051 0.863778,-0.244298 0.444976,-0.08725 0.881224,-0.08725 0.602025,0 1.134248,0.235576 0.54095,0.226849 0.942304,0.628198 0.410072,0.401353 0.645647,0.942304 0.235576,0.54095 0.235576,1.160425 v 6.587375 h -2.870523 z"
       id="path30904"
       style="font-size:35.2778px;line-height:1.25;font-family:'Tamil MN';-inkscape-font-specification:'Tamil MN';letter-spacing:0px;word-spacing:0px;stroke-width:0.134016" />
    <path
       d="m 71.016815,13.318318 v 1.055723 H 66.715392 V 25.742719 H 63.670364 V 14.374041 H 59.36894 v -1.055723 z"
       id="path30906"
       style="font-size:35.2778px;line-height:1.25;font-family:'Tamil MN';-inkscape-font-specification:'Tamil MN';letter-spacing:0px;word-spacing:0px;stroke-width:0.134016" />
    <path
       d="m 75.466573,25.952118 q -1.003375,0 -1.884599,-0.366449 -0.872501,-0.375173 -1.526875,-1.003375 -0.654374,-0.628198 -1.029552,-1.457072 -0.375176,-0.837603 -0.375176,-1.762452 0,-1.108077 0.349,-2.050375 0.349001,-0.951026 0.985925,-1.640305 0.63693,-0.697996 1.535603,-1.090622 0.898677,-0.392627 1.998027,-0.392627 0.977198,0 1.788623,0.314101 0.820152,0.305375 1.396001,0.855052 0.584577,0.54095 0.9074,1.273849 0.322824,0.724172 0.322824,1.561774 h -6.4914 q 0.02619,0.776526 0.218125,1.483249 0.200673,0.706728 0.532223,1.247678 0.331551,0.54095 0.776526,0.863775 0.444976,0.314101 0.985926,0.314101 0.471152,0 0.924849,-0.157051 0.453703,-0.165774 0.837602,-0.444975 0.3839,-0.287925 0.663102,-0.663102 0.279197,-0.375173 0.410075,-0.793976 l 1.457073,0.218127 q -0.218122,0.759077 -0.706723,1.4309 -0.479874,0.671824 -1.125526,1.177876 -0.645653,0.497328 -1.413452,0.793975 -0.759075,0.287924 -1.535601,0.287924 z m 1.204051,-6.726976 q -0.0349,-0.418799 -0.183222,-0.759077 -0.139602,-0.340272 -0.36645,-0.584571 -0.218127,-0.244304 -0.514779,-0.375177 -0.287924,-0.139601 -0.628198,-0.139601 -0.261752,0 -0.514777,0.130874 -0.253026,0.130878 -0.462425,0.375176 -0.209399,0.244299 -0.357723,0.593299 -0.139601,0.340278 -0.183227,0.759077 z"
       id="path30908"
       style="font-size:35.2778px;line-height:1.25;font-family:'Tamil MN';-inkscape-font-specification:'Tamil MN';letter-spacing:0px;word-spacing:0px;stroke-width:0.134016" />
    <path
       d="m 86.372825,25.952118 q -1.003374,0 -1.884597,-0.366449 -0.872501,-0.375173 -1.526876,-1.003375 -0.654374,-0.628198 -1.029551,-1.457072 -0.375177,-0.837603 -0.375177,-1.762452 0,-1.108077 0.349001,-2.050375 0.348999,-0.951026 0.985924,-1.640305 0.636931,-0.697996 1.535603,-1.090622 0.898678,-0.392627 1.998027,-0.392627 0.977198,0 1.788623,0.314101 0.820152,0.305375 1.396002,0.855052 0.584576,0.54095 0.9074,1.273849 0.322828,0.724172 0.322828,1.561774 h -6.491405 q 0.02619,0.776526 0.218126,1.483249 0.200672,0.706728 0.532223,1.247678 0.331551,0.54095 0.776526,0.863775 0.444976,0.314101 0.985925,0.314101 0.471153,0 0.924849,-0.157051 0.453703,-0.165774 0.837602,-0.444975 0.3839,-0.287925 0.663102,-0.663102 0.279197,-0.375173 0.410076,-0.793976 l 1.457073,0.218127 q -0.218122,0.759077 -0.706723,1.4309 -0.479874,0.671824 -1.125527,1.177876 -0.645652,0.497328 -1.413451,0.793975 -0.759077,0.287924 -1.535603,0.287924 z m 1.204053,-6.726976 q -0.0349,-0.418799 -0.183223,-0.759077 -0.139601,-0.340272 -0.36645,-0.584571 -0.218126,-0.244304 -0.514778,-0.375177 -0.287925,-0.139601 -0.628198,-0.139601 -0.261752,0 -0.514778,0.130874 -0.253026,0.130878 -0.462425,0.375176 -0.209399,0.244299 -0.357722,0.593299 -0.139601,0.340278 -0.183228,0.759077 z"
       id="path30910"
       style="font-size:35.2778px;line-height:1.25;font-family:'Tamil MN';-inkscape-font-specification:'Tamil MN';letter-spacing:0px;word-spacing:0px;stroke-width:0.134016" />
    <path
       d="m 92.410529,25.104047 q 0,-0.157045 0.05758,-0.293157 0.05759,-0.141349 0.15705,-0.240813 0.104702,-0.104698 0.240809,-0.162283 0.141349,-0.06282 0.298399,-0.06282 0.157051,0 0.298395,0.06282 0.141342,0.05759 0.240808,0.162283 0.104702,0.09946 0.162288,0.240813 0.06282,0.136112 0.06282,0.293157 0,0.157051 -0.06282,0.298399 -0.05759,0.136111 -0.162288,0.240808 -0.09946,0.09946 -0.240808,0.157052 -0.141344,0.05758 -0.298395,0.05758 -0.15705,0 -0.298399,-0.05758 -0.136107,-0.05759 -0.240809,-0.157052 -0.09946,-0.104697 -0.15705,-0.240808 -0.05758,-0.141348 -0.05758,-0.298399 z"
       style="font-size:21.1667px;line-height:1.25;font-family:'Tamil MN';-inkscape-font-specification:'Tamil MN';letter-spacing:0px;word-spacing:0px;stroke-width:0.134016"
       id="path30912" />
    <path
       d="m 96.896932,25.742719 q 0,0.748607 -0.172757,1.204052 -0.167521,0.460682 -0.476385,0.71196 -0.308864,0.256516 -0.743369,0.340278 -0.434506,0.08899 -0.963244,0.08899 -0.35598,0 -0.633435,-0.06282 -0.277454,-0.05758 -0.465915,-0.162283 -0.188459,-0.104702 -0.282691,-0.246046 -0.09946,-0.136111 -0.09946,-0.287924 0,-0.266985 0.2094,-0.444976 0.209404,-0.17799 0.570616,-0.17799 0.136112,0 0.246047,0.04189 0.104702,0.04189 0.188459,0.104702 0.08376,0.06805 0.151819,0.141343 0.06282,0.07852 0.109934,0.146581 0.120404,0.157051 0.198929,0.209399 0.08376,0.05235 0.151814,0.05235 0.07329,0 0.130879,-0.03662 0.05758,-0.03667 0.09423,-0.130879 0.03667,-0.09423 0.05235,-0.251278 0.02092,-0.157051 0.02092,-0.403096 v -6.151133 l 1.711845,-0.471152 z m -1.785138,-7.41277 q 0,-0.172753 0.06806,-0.324571 0.07329,-0.151813 0.198929,-0.261747 0.125642,-0.115173 0.293162,-0.177991 0.16752,-0.06806 0.355981,-0.06806 0.188459,0 0.355979,0.06806 0.16752,0.06282 0.293162,0.177991 0.125637,0.109934 0.19893,0.261747 0.07329,0.151818 0.07329,0.324571 0,0.172757 -0.07329,0.324571 -0.07329,0.151818 -0.19893,0.261753 -0.125642,0.109934 -0.293162,0.17799 -0.16752,0.06282 -0.355979,0.06282 -0.188461,0 -0.355981,-0.06282 -0.16752,-0.06806 -0.293162,-0.17799 -0.125641,-0.109935 -0.198929,-0.261753 -0.06806,-0.151814 -0.06806,-0.324571 z"
       style="font-size:21.1667px;line-height:1.25;font-family:'Tamil MN';-inkscape-font-specification:'Tamil MN';letter-spacing:0px;word-spacing:0px;stroke-width:0.134016"
       id="path30914" />
    <path
       d="m 100.00129,25.742719 h -1.690907 v -7.878685 l 1.690907,-0.471152 z"
       style="font-size:21.1667px;line-height:1.25;font-family:'Tamil MN';-inkscape-font-specification:'Tamil MN';letter-spacing:0px;word-spacing:0px;stroke-width:0.134016"
       id="path30916" />
    <path
       d="m 65.187924,6.1444819 c -0.329089,-0.00203 -0.333344,-0.00101 -0.536736,-0.00152 l -3.3619,0.00304 c -0.122669,1.16e-4 -0.19156,-0.161002 -0.30623,-0.2172709 L 56.303864,3.6324817 c -0.874274,-0.4290351 -1.308496,0.3111382 -1.576692,0.7707567 0,0 -0.654718,1.2503981 -0.584191,3.7478917 0.07816,2.7677459 0.586091,3.6643009 0.586091,3.6643009 0.318892,0.573423 0.711135,1.417428 1.583362,0.941245 l 4.674873,-2.30144 c 0.114609,-0.05642 0.183162,-0.217732 0.30582,-0.217848 l 3.361905,-0.003 c 0,0 0.540348,0.0035 0.566383,0.0025 l -0.0084,-1.0230986 -0.0084,-1.0231034 -0.0084,-1.0230986 z"
       stroke-width="0.564331"
       id="path249"
       sodipodi:nodetypes="ccsssssscsscccccc"
       style="fill:none;stroke:#000000;stroke-opacity:1" />
    <path
       d="m 29.522512,6.7725073 c 1.50655,0 1.50658,2.1437218 3.013133,2.1437218 1.50655,0 1.50655,-2.1437218 3.013128,-2.1437218 1.506586,0 1.506586,2.1437218 3.013134,2.1437218 1.506548,0 1.506548,-2.1437218 3.013133,-2.1437218 1.506579,0 1.506548,2.1437218 3.013133,2.1437218 1.506579,0 1.506579,-2.1437218 3.013127,-2.1437218 0.753277,0 1.31824,0.4019466 1.789043,0.870885 0.470808,0.4689386 0.990412,0.420242 1.670847,0.4073613"
       id="path233"
       style="fill:none;stroke:#000000;stroke-width:0.506517;stroke-miterlimit:4;stroke-dasharray:none"
       sodipodi:nodetypes="csssssssc" />
    <path
       d="m 50.039216,6.9888255 1.021974,1.0619281 -1.025408,1.061923"
       id="path235"
       style="fill:none;stroke:#000000;stroke-width:0.506517;stroke-miterlimit:4;stroke-dasharray:none"
       sodipodi:nodetypes="ccc" />
    <path
       d="m 34.670057,1.7294365 c 1.486262,0.2466181 1.135347,2.3614228 2.621576,2.6080358 1.486227,0.246613 1.83714,-1.8681918 3.323402,-1.6215737 1.486258,0.2466181 1.135314,2.3614178 2.621576,2.6080409 1.486257,0.246613 1.837171,-1.8681918 3.323399,-1.6215787 0.743115,0.1233065 1.234659,0.6123132 1.622347,1.1519919 0.387698,0.5396837 0.908265,0.5767 1.581628,0.6753746"
       id="path233-7"
       style="fill:none;stroke:#000000;stroke-width:0.506517;stroke-miterlimit:4;stroke-dasharray:none"
       sodipodi:nodetypes="csssssc" />
    <path
       d="m 48.929625,4.3148361 0.83436,1.2148912 -1.185405,0.8797491"
       id="path235-5"
       style="fill:none;stroke:#000000;stroke-width:0.506517;stroke-miterlimit:4;stroke-dasharray:none"
       sodipodi:nodetypes="ccc" />
    <path
       d="m 46.460355,13.333427 c 1.463253,-0.35871 0.952852,-2.440784 2.416075,-2.799479 0.731613,-0.179348 1.376025,0.07653 1.944939,0.419887 0.56892,0.343359 1.061989,0.172348 1.719787,-0.002"
       id="path233-7-3"
       style="fill:none;stroke:#000000;stroke-width:0.506517;stroke-miterlimit:4;stroke-dasharray:none"
       sodipodi:nodetypes="cssc" />
    <path
       d="m 51.295737,10.163745 1.245419,0.788064 -0.74308,1.275527"
       id="path235-5-5"
       style="fill:none;stroke:#000000;stroke-width:0.506517;stroke-miterlimit:4;stroke-dasharray:none"
       sodipodi:nodetypes="ccc" />
    <path
       style="fill:#9457b0;fill-opacity:1;fill-rule:nonzero;stroke:none;stroke-width:0.178688"
       d="m 35.983705,3.1270385 c 0,1.7275472 -1.400186,3.1270385 -3.12704,3.1270385 -1.726852,0 -3.127038,-1.3994913 -3.127038,-3.1270385 C 29.729627,1.4001852 31.129813,0 32.856665,0 c 1.726854,0 3.12704,1.4001852 3.12704,3.1270385"
       id="path66" />
    <path
       style="fill:#3f61d7;fill-opacity:1;fill-rule:nonzero;stroke:none;stroke-width:0.178688"
       d="m 33.219895,11.307582 c 0,1.727547 -1.400185,3.127038 -3.127038,3.127038 -1.726851,0 -3.127039,-1.399491 -3.127039,-3.127038 0,-1.7268532 1.400188,-3.1270385 3.127039,-3.1270385 1.726853,0 3.127038,1.4001853 3.127038,3.1270385"
       id="path64" />
    <path
       style="fill:#389723;fill-opacity:1;fill-rule:nonzero;stroke:none;stroke-width:0.178688"
       d="m 30.31697,7.7163561 c 0,1.7268533 -1.40019,3.1270389 -3.127044,3.1270389 -1.727547,0 -3.127038,-1.4001856 -3.127038,-3.1270389 0,-1.7268532 1.399491,-3.1270385 3.127038,-3.1270385 1.726854,0 3.127044,1.4001853 3.127044,3.1270385"
       id="path68" />
    <path
       style="fill:#ca3a33;fill-opacity:1;fill-rule:nonzero;stroke:none;stroke-width:0.178688"
       d="m 48.74443,12.979599 c 0,1.727548 -1.400189,3.12704 -3.127042,3.12704 -1.727547,0 -3.127038,-1.399492 -3.127038,-3.12704 0,-1.726853 1.399491,-3.1270378 3.127038,-3.1270378 1.726853,0 3.127042,1.4001848 3.127042,3.1270378"
       id="path62" />
    <path
       style="fill:none;stroke:#000000;stroke-width:0.304254;stroke-linecap:butt;stroke-linejoin:miter;stroke-miterlimit:4;stroke-dasharray:none;stroke-opacity:1"
       d="m 57.580129,6.3081426 c 0,0 0.740412,0.3847605 1.04335,0.6644744 0.299822,0.2768317 0.737736,0.9769852 0.737736,0.9769852"
       id="path27323"
       sodipodi:nodetypes="csc" />
    <path
       style="fill:none;stroke:#000000;stroke-width:0.304254;stroke-linecap:butt;stroke-linejoin:miter;stroke-miterlimit:4;stroke-dasharray:none;stroke-opacity:1"
       d="m 59.313496,7.0175956 c 0,0 0.820999,0.1490478 1.193,0.3268707 0.368188,0.1759943 0.993265,0.7156781 0.993265,0.7156781"
       id="path27323-2"
       sodipodi:nodetypes="csc" />
    <path
       style="fill:none;stroke:#000000;stroke-width:0.304254;stroke-linecap:butt;stroke-linejoin:miter;stroke-miterlimit:4;stroke-dasharray:none;stroke-opacity:1"
       d="m 60.184098,8.2743352 c 0,0 -0.492142,0.6738247 -0.814388,0.9310543 -0.318929,0.2545856 -1.07718,0.5817601 -1.07718,0.5817601"
       id="path27323-6"
       sodipodi:nodetypes="csc" />
    <path
       style="fill:none;stroke:#000000;stroke-width:0.304254;stroke-linecap:butt;stroke-linejoin:miter;stroke-miterlimit:4;stroke-dasharray:none;stroke-opacity:1"
       d="m 62.299637,8.2885684 c 0,0 -0.655347,0.5165005 -1.034935,0.677502 -0.375684,0.1593451 -1.194008,0.2703635 -1.194008,0.2703635"
       id="path27323-6-9"
       sodipodi:nodetypes="csc" />
    <path
       style="fill:none;stroke:#000000;stroke-width:0.304254;stroke-linecap:butt;stroke-linejoin:miter;stroke-miterlimit:4;stroke-dasharray:none;stroke-opacity:1"
       d="m 61.475362,7.1449948 c 0,0 0.820998,0.1490477 1.193,0.3268706 0.368186,0.1759945 0.993264,0.7156782 0.993264,0.7156782"
       id="path27323-2-1"
       sodipodi:nodetypes="csc" />
    <path
       style="fill:none;stroke:#000000;stroke-width:0.304254;stroke-linecap:butt;stroke-linejoin:miter;stroke-miterlimit:4;stroke-dasharray:none;stroke-opacity:1"
       d="m 64.225755,8.3370673 c 0,0 -0.300183,0.3088893 -0.679772,0.4698909 -0.375684,0.1593452 -1.194007,0.2703636 -1.194007,0.2703636"
       id="path27323-6-9-2"
       sodipodi:nodetypes="csc" />
    <path
       style="fill:none;stroke:#000000;stroke-width:0.354562;stroke-linecap:butt;stroke-linejoin:miter;stroke-miterlimit:4;stroke-dasharray:none;stroke-opacity:1"
       d="m 65.187924,6.1444819 c 4.463859,-0.00101 4.463859,-0.00101 4.463859,-0.00101"
       id="path29082" />
    <path
       style="fill:none;stroke:#000000;stroke-width:0.354562;stroke-linecap:butt;stroke-linejoin:miter;stroke-miterlimit:4;stroke-dasharray:none;stroke-opacity:1"
       d="m 65.221415,10.236881 c 4.463858,-0.001 4.463858,-0.001 4.463858,-0.001"
       id="path29082-7" />
    <path
       style="fill:none;stroke:#000000;stroke-width:0.354562;stroke-linecap:butt;stroke-linejoin:miter;stroke-miterlimit:4;stroke-dasharray:none;stroke-opacity:1"
       d="m 65.236433,7.1831305 c 4.463858,-0.00101 4.463858,-0.00101 4.463858,-0.00101"
       id="path29082-0" />
    <path
       style="fill:none;stroke:#000000;stroke-width:0.354562;stroke-linecap:butt;stroke-linejoin:miter;stroke-miterlimit:4;stroke-dasharray:none;stroke-opacity:1"
       d="m 65.226394,8.2031493 c 4.463858,-0.00101 4.463858,-0.00101 4.463858,-0.00101"
       id="path29082-0-3" />
    <path
       style="fill:none;stroke:#000000;stroke-width:0.354562;stroke-linecap:butt;stroke-linejoin:miter;stroke-miterlimit:4;stroke-dasharray:none;stroke-opacity:1"
       d="m 65.215524,9.2140257 c 4.463858,-0.00101 4.463858,-0.00101 4.463858,-0.00101"
       id="path29082-9" />
  </g>
</svg>
