<?xml version="1.0" encoding="UTF-8" standalone="no"?>
<!-- Created with Inkscape (http://www.inkscape.org/) -->

<svg
   width="197.429mm"
   height="55.452999mm"
   viewBox="0 0 197.429 55.452999"
   version="1.1"
   id="svg8358"
   inkscape:version="1.1 (c4e8f9ed74, 2021-05-24)"
   sodipodi:docname="peeemtee.svg"
   xmlns:inkscape="http://www.inkscape.org/namespaces/inkscape"
   xmlns:sodipodi="http://sodipodi.sourceforge.net/DTD/sodipodi-0.dtd"
   xmlns="http://www.w3.org/2000/svg"
   xmlns:svg="http://www.w3.org/2000/svg">
  <sodipodi:namedview
     id="namedview8360"
     pagecolor="#ffffff"
     bordercolor="#666666"
     borderopacity="1.0"
     inkscape:pageshadow="2"
     inkscape:pageopacity="0.0"
     inkscape:pagecheckerboard="0"
     inkscape:document-units="mm"
     showgrid="false"
     inkscape:zoom="1.0897757"
     inkscape:cx="312.90841"
     inkscape:cy="389.98849"
     inkscape:window-width="1920"
     inkscape:window-height="1185"
     inkscape:window-x="0"
     inkscape:window-y="15"
     inkscape:window-maximized="1"
     inkscape:current-layer="layer1"
     showguides="true"
     inkscape:guide-bbox="true"
     width="197.429mm" />
  <defs
     id="defs8355" />
  <g
     inkscape:label="Ebene 1"
     inkscape:groupmode="layer"
     id="layer1">
    <path
       d="m 0,26.29392 h 8.5438427 q 2.0670593,0 3.8585093,0.44786 1.808677,0.43064 3.135039,1.29191 1.326363,0.86127 2.084285,2.15319 0.775147,1.29191 0.775147,3.01446 0,1.73977 -0.757922,3.03168 -0.757921,1.29191 -1.998157,2.15319 -1.223009,0.86127 -2.807754,1.29191 -1.584745,0.43064 -3.2383923,0.43064 H 6.0461466 V 50.82301 H 0 Z m 6.0461466,11.59275 h 1.9637061 q 1.016304,0 1.774225,-0.36174 0.7751473,-0.37896 1.2746863,-1.0163 0.516765,-0.63734 0.757922,-1.46417 0.258382,-0.84405 0.258382,-1.757 0,-1.10243 -0.327284,-1.9637 -0.327285,-0.86128 -0.912951,-1.44694 -0.568441,-0.58567 -1.3435883,-0.89573 -0.775147,-0.31006 -1.653647,-0.31006 H 6.0461466 Z"
       id="path30896"
       style="font-size:35.2778px;line-height:1.25;font-family:'Tamil MN';-inkscape-font-specification:'Tamil MN';letter-spacing:0px;word-spacing:0px;stroke-width:0.264583" />
    <path
       d="m 29.886223,51.23642 q -1.980931,0 -3.720706,-0.72347 -1.722548,-0.74069 -3.01446,-1.98093 -1.291912,-1.24023 -2.032608,-2.87665 -0.740696,-1.65365 -0.740696,-3.47955 0,-2.18764 0.68902,-4.04799 0.689019,-1.87758 1.94648,-3.2384 1.257461,-1.37803 3.031686,-2.15318 1.774225,-0.77515 3.944637,-0.77515 1.929255,0 3.531225,0.62012 1.619196,0.60289 2.756078,1.6881 1.154108,1.06798 1.791451,2.51492 0.637343,1.42971 0.637343,3.08336 H 25.88991 q 0.05168,1.53307 0.430637,2.92833 0.396186,1.39527 1.050755,2.46325 0.654568,1.06798 1.533068,1.70532 0.8785,0.62012 1.94648,0.62012 0.930177,0 1.825902,-0.31006 0.895726,-0.32728 1.653647,-0.8785 0.757922,-0.56844 1.309137,-1.30914 0.551216,-0.74069 0.809598,-1.56752 l 2.876657,0.43064 q -0.430637,1.49862 -1.395265,2.82498 -0.947401,1.32636 -2.222088,2.32544 -1.274686,0.98186 -2.790529,1.56752 -1.498617,0.56844 -3.031686,0.56844 z m 2.377118,-13.28085 q -0.0689,-0.82682 -0.361736,-1.49862 -0.275608,-0.67179 -0.72347,-1.1541 -0.430638,-0.48232 -1.016304,-0.7407 -0.568441,-0.27561 -1.240235,-0.27561 -0.516765,0 -1.016304,0.25838 -0.499539,0.25839 -0.912951,0.7407 -0.413412,0.48231 -0.706245,1.17133 -0.275608,0.6718 -0.361735,1.49862 z"
       id="path30898"
       style="font-size:35.2778px;line-height:1.25;font-family:'Tamil MN';-inkscape-font-specification:'Tamil MN';letter-spacing:0px;word-spacing:0px;stroke-width:0.264583" />
    <path
       d="m 51.418085,51.23642 q -1.980931,0 -3.720705,-0.72347 -1.722549,-0.74069 -3.014461,-1.98093 -1.291912,-1.24023 -2.032608,-2.87665 -0.740696,-1.65365 -0.740696,-3.47955 0,-2.18764 0.68902,-4.04799 0.689019,-1.87758 1.94648,-3.2384 1.257461,-1.37803 3.031686,-2.15318 1.774226,-0.77515 3.944637,-0.77515 1.929255,0 3.531225,0.62012 1.619196,0.60289 2.756079,1.6881 1.154107,1.06798 1.791451,2.51492 0.637343,1.42971 0.637343,3.08336 H 47.421772 q 0.05168,1.53307 0.430637,2.92833 0.396186,1.39527 1.050755,2.46325 0.654568,1.06798 1.533068,1.70532 0.8785,0.62012 1.946481,0.62012 0.930176,0 1.825902,-0.31006 0.895725,-0.32728 1.653646,-0.8785 0.757922,-0.56844 1.309138,-1.30914 0.551215,-0.74069 0.809598,-1.56752 l 2.876656,0.43064 q -0.430637,1.49862 -1.395264,2.82498 -0.947402,1.32636 -2.222088,2.32544 -1.274687,0.98186 -2.79053,1.56752 -1.498617,0.56844 -3.031686,0.56844 z m 2.377118,-13.28085 q -0.0689,-0.82682 -0.361735,-1.49862 -0.275608,-0.67179 -0.723471,-1.1541 -0.430637,-0.48232 -1.016304,-0.7407 -0.568441,-0.27561 -1.240235,-0.27561 -0.516765,0 -1.016304,0.25838 -0.499539,0.25839 -0.912951,0.7407 -0.413412,0.48231 -0.706245,1.17133 -0.275608,0.6718 -0.361735,1.49862 z"
       id="path30900"
       style="font-size:35.2778px;line-height:1.25;font-family:'Tamil MN';-inkscape-font-specification:'Tamil MN';letter-spacing:0px;word-spacing:0px;stroke-width:0.264583" />
    <path
       d="M 83.474719,26.29392 V 28.3782 H 71.17572 v 8.09598 h 10.214715 v 2.10151 H 71.17572 v 9.7324 h 12.298999 v 2.51492 H 65.164025 V 26.29392 Z"
       id="path30902"
       style="font-size:35.2778px;line-height:1.25;font-family:'Tamil MN';-inkscape-font-specification:'Tamil MN';letter-spacing:0px;word-spacing:0px;stroke-width:0.264583" />
    <path
       d="m 110.39815,38.26563 q 0,-0.62012 -0.15502,-1.17133 -0.13781,-0.55122 -0.41342,-0.96463 -0.25838,-0.41341 -0.62011,-0.65457 -0.36174,-0.24116 -0.79238,-0.24116 -0.48231,0 -1.0163,0.17226 -0.51676,0.15503 -1.03353,0.43064 -0.49954,0.2756 -0.96463,0.63734 -0.46509,0.36173 -0.79237,0.77515 V 50.82301 H 99.029331 V 38.26563 q 0,-0.62012 -0.17225,-1.17133 -0.15503,-0.55122 -0.43064,-0.96463 -0.27561,-0.41341 -0.63734,-0.65457 -0.36174,-0.24116 -0.7407,-0.24116 -0.44786,0 -0.964627,0.17226 -0.516764,0.15503 -1.033529,0.43064 -0.499539,0.2756 -0.981853,0.63734 -0.482313,0.36173 -0.861274,0.77515 V 50.82301 H 87.608834 V 32.34006 h 5.598284 v 1.58475 q 1.326362,-0.89573 2.738853,-1.42972 1.41249,-0.53399 2.72163,-0.53399 0.72347,0 1.464159,0.17226 0.7407,0.15503 1.41249,0.44786 0.68902,0.29283 1.25746,0.74069 0.58567,0.43064 0.98186,0.96463 0.63734,-0.51676 1.39526,-0.9474 0.77515,-0.43064 1.60197,-0.72347 0.84405,-0.31006 1.70533,-0.48231 0.8785,-0.17226 1.73977,-0.17226 1.18856,0 2.23931,0.46509 1.06798,0.44786 1.86036,1.24023 0.80959,0.79238 1.27468,1.86036 0.46509,1.06798 0.46509,2.29099 v 13.00524 h -5.66719 z"
       id="path30904"
       style="font-size:35.2778px;line-height:1.25;font-family:'Tamil MN';-inkscape-font-specification:'Tamil MN';letter-spacing:0px;word-spacing:0px;stroke-width:0.264583" />
    <path
       d="m 140.20618,26.29392 v 2.08428 h -8.49216 v 22.44481 h -6.0117 V 28.3782 h -8.49216 v -2.08428 z"
       id="path30906"
       style="font-size:35.2778px;line-height:1.25;font-family:'Tamil MN';-inkscape-font-specification:'Tamil MN';letter-spacing:0px;word-spacing:0px;stroke-width:0.264583" />
    <path
       d="m 148.99119,51.23642 q -1.98093,0 -3.7207,-0.72347 -1.72255,-0.74069 -3.01446,-1.98093 -1.29191,-1.24023 -2.03261,-2.87665 -0.7407,-1.65365 -0.7407,-3.47955 0,-2.18764 0.68902,-4.04799 0.68902,-1.87758 1.94648,-3.2384 1.25747,-1.37803 3.03169,-2.15318 1.77423,-0.77515 3.94464,-0.77515 1.92925,0 3.53122,0.62012 1.6192,0.60289 2.75608,1.6881 1.15411,1.06798 1.79145,2.51492 0.63734,1.42971 0.63734,3.08336 h -12.81576 q 0.0517,1.53307 0.43064,2.92833 0.39618,1.39527 1.05075,2.46325 0.65457,1.06798 1.53307,1.70532 0.8785,0.62012 1.94648,0.62012 0.93018,0 1.8259,-0.31006 0.89573,-0.32728 1.65365,-0.8785 0.75792,-0.56844 1.30914,-1.30914 0.55121,-0.74069 0.8096,-1.56752 l 2.87665,0.43064 q -0.43063,1.49862 -1.39526,2.82498 -0.9474,1.32636 -2.22209,2.32544 -1.27469,0.98186 -2.79053,1.56752 -1.49862,0.56844 -3.03169,0.56844 z m 2.37712,-13.28085 q -0.0689,-0.82682 -0.36173,-1.49862 -0.27561,-0.67179 -0.72347,-1.1541 -0.43064,-0.48232 -1.01631,-0.7407 -0.56844,-0.27561 -1.24023,-0.27561 -0.51677,0 -1.01631,0.25838 -0.49954,0.25839 -0.91295,0.7407 -0.41341,0.48231 -0.70624,1.17133 -0.27561,0.6718 -0.36174,1.49862 z"
       id="path30908"
       style="font-size:35.2778px;line-height:1.25;font-family:'Tamil MN';-inkscape-font-specification:'Tamil MN';letter-spacing:0px;word-spacing:0px;stroke-width:0.264583" />
    <path
       d="m 170.52305,51.23642 q -1.98093,0 -3.7207,-0.72347 -1.72255,-0.74069 -3.01446,-1.98093 -1.29191,-1.24023 -2.03261,-2.87665 -0.7407,-1.65365 -0.7407,-3.47955 0,-2.18764 0.68902,-4.04799 0.68902,-1.87758 1.94648,-3.2384 1.25747,-1.37803 3.03169,-2.15318 1.77423,-0.77515 3.94464,-0.77515 1.92925,0 3.53122,0.62012 1.6192,0.60289 2.75608,1.6881 1.15411,1.06798 1.79145,2.51492 0.63735,1.42971 0.63735,3.08336 h -12.81577 q 0.0517,1.53307 0.43064,2.92833 0.39618,1.39527 1.05075,2.46325 0.65457,1.06798 1.53307,1.70532 0.8785,0.62012 1.94648,0.62012 0.93018,0 1.8259,-0.31006 0.89573,-0.32728 1.65365,-0.8785 0.75792,-0.56844 1.30914,-1.30914 0.55121,-0.74069 0.8096,-1.56752 l 2.87665,0.43064 q -0.43063,1.49862 -1.39526,2.82498 -0.9474,1.32636 -2.22209,2.32544 -1.27469,0.98186 -2.79053,1.56752 -1.49862,0.56844 -3.03169,0.56844 z m 2.37712,-13.28085 q -0.0689,-0.82682 -0.36173,-1.49862 -0.27561,-0.67179 -0.72347,-1.1541 -0.43064,-0.48232 -1.01631,-0.7407 -0.56844,-0.27561 -1.24023,-0.27561 -0.51677,0 -1.01631,0.25838 -0.49954,0.25839 -0.91295,0.7407 -0.41341,0.48231 -0.70624,1.17133 -0.27561,0.6718 -0.36174,1.49862 z"
       id="path30910"
       style="font-size:35.2778px;line-height:1.25;font-family:'Tamil MN';-inkscape-font-specification:'Tamil MN';letter-spacing:0px;word-spacing:0px;stroke-width:0.264583" />
    <path
       d="m 182.44309,49.5621 q 0,-0.31005 0.11369,-0.57877 0.11369,-0.27906 0.31006,-0.47543 0.20671,-0.2067 0.47542,-0.32039 0.27906,-0.12402 0.58912,-0.12402 0.31006,0 0.58911,0.12402 0.27905,0.11369 0.47542,0.32039 0.20671,0.19637 0.3204,0.47543 0.12402,0.26872 0.12402,0.57877 0,0.31006 -0.12402,0.58912 -0.11369,0.26872 -0.3204,0.47542 -0.19637,0.19637 -0.47542,0.31006 -0.27905,0.11369 -0.58911,0.11369 -0.31006,0 -0.58912,-0.11369 -0.26871,-0.11369 -0.47542,-0.31006 -0.19637,-0.2067 -0.31006,-0.47542 -0.11369,-0.27906 -0.11369,-0.58912 z"
       style="font-size:21.1667px;line-height:1.25;font-family:'Tamil MN';-inkscape-font-specification:'Tamil MN';letter-spacing:0px;word-spacing:0px;stroke-width:0.264583"
       id="path30912" />
    <path
       d="m 191.30045,50.82301 q 0,1.47795 -0.34107,2.37712 -0.33073,0.90951 -0.94051,1.4056 -0.60978,0.50643 -1.46761,0.6718 -0.85783,0.1757 -1.9017,0.1757 -0.7028,0 -1.25057,-0.12403 -0.54777,-0.11368 -0.91984,-0.32039 -0.37207,-0.20671 -0.55811,-0.48576 -0.19637,-0.26872 -0.19637,-0.56844 0,-0.5271 0.41341,-0.8785 0.41342,-0.3514 1.12655,-0.3514 0.26872,0 0.48576,0.0827 0.20671,0.0827 0.37207,0.20671 0.16537,0.13435 0.29973,0.27905 0.12402,0.15503 0.21704,0.28939 0.23771,0.31006 0.39274,0.41341 0.16536,0.10335 0.29972,0.10335 0.1447,0 0.25839,-0.0723 0.11368,-0.0724 0.18603,-0.25839 0.0724,-0.18603 0.10335,-0.49609 0.0413,-0.31006 0.0413,-0.79582 V 40.33274 l 3.37964,-0.93018 z m -3.52434,-14.63479 q 0,-0.34106 0.13436,-0.64079 0.14469,-0.29972 0.39274,-0.51676 0.24805,-0.22738 0.57878,-0.3514 0.33073,-0.13436 0.7028,-0.13436 0.37207,0 0.7028,0.13436 0.33073,0.12402 0.57878,0.3514 0.24804,0.21704 0.39274,0.51676 0.14469,0.29973 0.14469,0.64079 0,0.34107 -0.14469,0.64079 -0.1447,0.29973 -0.39274,0.51677 -0.24805,0.21704 -0.57878,0.3514 -0.33073,0.12402 -0.7028,0.12402 -0.37207,0 -0.7028,-0.12402 -0.33073,-0.13436 -0.57878,-0.3514 -0.24805,-0.21704 -0.39274,-0.51677 -0.13436,-0.29972 -0.13436,-0.64079 z"
       style="font-size:21.1667px;line-height:1.25;font-family:'Tamil MN';-inkscape-font-specification:'Tamil MN';letter-spacing:0px;word-spacing:0px;stroke-width:0.264583"
       id="path30914" />
    <path
       d="m 197.42928,50.82301 h -3.3383 V 35.26838 l 3.3383,-0.93018 z"
       style="font-size:21.1667px;line-height:1.25;font-family:'Tamil MN';-inkscape-font-specification:'Tamil MN';letter-spacing:0px;word-spacing:0px;stroke-width:0.264583"
       id="path30916" />
    <path
       d="m 128.69839,12.13085 c -0.64971,-0.004 -0.65811,-0.002 -1.05966,-0.003 l -6.63729,0.006 c -0.24218,2.3e-4 -0.37819,-0.31786 -0.60458,-0.42895 l -9.23798,-4.53341 c -1.72605,-0.84703 -2.58332,0.61427 -3.11281,1.52168 0,0 -1.29259,2.46862 -1.15335,7.39934 0.1543,5.46427 1.1571,7.23431 1.1571,7.23431 0.62958,1.13209 1.40397,2.79838 3.12598,1.85827 l 9.22945,-4.54366 c 0.22627,-0.11139 0.36161,-0.42986 0.60377,-0.43009 l 6.6373,-0.006 c 0,0 1.06679,0.007 1.11819,0.005 l -0.0165,-2.01987 -0.0165,-2.01988 -0.0165,-2.01987 z"
       stroke-width="1.11414"
       id="path249"
       sodipodi:nodetypes="ccsssssscsscccccc"
       style="fill:none;stroke:#000000;stroke-opacity:1" />
    <path
       d="m 58.285333,13.37074 c 2.97433,0 2.97439,4.23228 5.94873,4.23228 2.97433,0 2.97433,-4.23228 5.94872,-4.23228 2.974401,0 2.974401,4.23228 5.948731,4.23228 2.97433,0 2.97433,-4.23228 5.94873,-4.23228 2.97439,0 2.97433,4.23228 5.94873,4.23228 2.97439,0 2.97439,-4.23228 5.94872,-4.23228 1.48717,0 2.602557,0.79355 3.532047,1.71936 0.9295,0.92581 1.95534,0.82967 3.298699,0.80424"
       id="path233"
       style="fill:none;stroke:#000000;stroke-width:1;stroke-miterlimit:4;stroke-dasharray:none"
       sodipodi:nodetypes="csssssssc" />
    <path
       d="m 98.790791,13.79781 2.017649,2.09653 -2.024429,2.09652"
       id="path235"
       style="fill:none;stroke:#000000;stroke-width:1;stroke-miterlimit:4;stroke-dasharray:none"
       sodipodi:nodetypes="ccc" />
    <path
       d="m 68.447962,3.41437 c 2.934279,0.48689 2.24148,4.66208 5.17569,5.14896 2.93421,0.48688 3.627008,-3.68831 6.561287,-3.20142 2.934269,0.48689 2.241412,4.66207 5.175691,5.14897 2.934269,0.48688 3.627067,-3.68831 6.561277,-3.20143 1.467108,0.24344 2.437548,1.20887 3.202948,2.27434 0.765419,1.06548 1.793156,1.13856 3.122556,1.33337"
       id="path233-7"
       style="fill:none;stroke:#000000;stroke-width:1;stroke-miterlimit:4;stroke-dasharray:none"
       sodipodi:nodetypes="csssssc" />
    <path
       d="m 96.600161,8.51864 1.64725,2.39852 -2.340307,1.73686"
       id="path235-5"
       style="fill:none;stroke:#000000;stroke-width:1;stroke-miterlimit:4;stroke-dasharray:none"
       sodipodi:nodetypes="ccc" />
    <path
       d="m 91.725162,26.32375 c 2.888852,-0.70819 1.881185,-4.81876 4.769979,-5.52692 1.4444,-0.35408 2.71664,0.15109 3.839829,0.82897 1.1232,0.67788 2.09665,0.34026 3.39532,-0.004"
       id="path233-7-3"
       style="fill:none;stroke:#000000;stroke-width:1;stroke-miterlimit:4;stroke-dasharray:none"
       sodipodi:nodetypes="cssc" />
    <path
       d="m 101.2715,20.06595 2.45879,1.55585 -1.46704,2.51823"
       id="path235-5-5"
       style="fill:none;stroke:#000000;stroke-width:1;stroke-miterlimit:4;stroke-dasharray:none"
       sodipodi:nodetypes="ccc" />
    <path
       style="fill:#9457b0;fill-opacity:1;fill-rule:nonzero;stroke:none;stroke-width:0.352778"
       d="m 71.041453,6.17361 c 0,3.41064 -2.76434,6.17361 -6.17361,6.17361 -3.40927,0 -6.17361,-2.76297 -6.17361,-6.17361 0,-3.40927 2.76434,-6.17361 6.17361,-6.17361 3.40927,0 6.17361,2.76434 6.17361,6.17361"
       id="path66" />
    <path
       style="fill:#3f61d7;fill-opacity:1;fill-rule:nonzero;stroke:none;stroke-width:0.352778"
       d="m 65.584955,22.32419 c 0,3.41064 -2.76434,6.17361 -6.17361,6.17361 -3.409267,0 -6.173611,-2.76297 -6.173611,-6.17361 0,-3.40927 2.764344,-6.17361 6.173611,-6.17361 3.40927,0 6.17361,2.76434 6.17361,6.17361"
       id="path64" />
    <path
       style="fill:#389723;fill-opacity:1;fill-rule:nonzero;stroke:none;stroke-width:0.352778"
       d="m 59.853804,15.23415 c 0,3.40927 -2.76435,6.17361 -6.17362,6.17361 -3.41064,0 -6.17361,-2.76434 -6.17361,-6.17361 0,-3.40927 2.76297,-6.17361 6.17361,-6.17361 3.40927,0 6.17362,2.76434 6.17362,6.17361"
       id="path68" />
    <path
       style="fill:#ca3a33;fill-opacity:1;fill-rule:nonzero;stroke:none;stroke-width:0.352778"
       d="m 96.234538,25.6252 c 0,3.41064 -2.764348,6.17361 -6.173618,6.17361 -3.41064,0 -6.17361,-2.76297 -6.17361,-6.17361 0,-3.40927 2.76297,-6.17361 6.17361,-6.17361 3.40927,0 6.173618,2.76434 6.173618,6.17361"
       id="path62" />
    <path
       style="fill:none;stroke:#000000;stroke-width:0.600678;stroke-linecap:butt;stroke-linejoin:miter;stroke-miterlimit:4;stroke-dasharray:none;stroke-opacity:1"
       d="m 113.67857,12.45396 c 0,0 1.46177,0.75962 2.05985,1.31185 0.59193,0.54654 1.45649,1.92883 1.45649,1.92883"
       id="path27323"
       sodipodi:nodetypes="csc" />
    <path
       style="fill:none;stroke:#000000;stroke-width:0.600678;stroke-linecap:butt;stroke-linejoin:miter;stroke-miterlimit:4;stroke-dasharray:none;stroke-opacity:1"
       d="m 117.1007,13.85461 c 0,0 1.62087,0.29426 2.3553,0.64533 0.7269,0.34746 1.96097,1.41294 1.96097,1.41294"
       id="path27323-2"
       sodipodi:nodetypes="csc" />
    <path
       style="fill:none;stroke:#000000;stroke-width:0.600678;stroke-linecap:butt;stroke-linejoin:miter;stroke-miterlimit:4;stroke-dasharray:none;stroke-opacity:1"
       d="m 118.8195,16.33575 c 0,0 -0.97162,1.33031 -1.60782,1.83815 -0.62965,0.50262 -2.12664,1.14855 -2.12664,1.14855"
       id="path27323-6"
       sodipodi:nodetypes="csc" />
    <path
       style="fill:none;stroke:#000000;stroke-width:0.600678;stroke-linecap:butt;stroke-linejoin:miter;stroke-miterlimit:4;stroke-dasharray:none;stroke-opacity:1"
       d="m 122.99614,16.36385 c 0,0 -1.29383,1.01971 -2.04324,1.33757 -0.7417,0.31459 -2.35729,0.53377 -2.35729,0.53377"
       id="path27323-6-9"
       sodipodi:nodetypes="csc" />
    <path
       style="fill:none;stroke:#000000;stroke-width:0.600678;stroke-linecap:butt;stroke-linejoin:miter;stroke-miterlimit:4;stroke-dasharray:none;stroke-opacity:1"
       d="m 121.3688,14.10613 c 0,0 1.62087,0.29426 2.3553,0.64533 0.7269,0.34746 1.96097,1.41294 1.96097,1.41294"
       id="path27323-2-1"
       sodipodi:nodetypes="csc" />
    <path
       style="fill:none;stroke:#000000;stroke-width:0.600678;stroke-linecap:butt;stroke-linejoin:miter;stroke-miterlimit:4;stroke-dasharray:none;stroke-opacity:1"
       d="m 126.79881,16.4596 c 0,0 -0.59264,0.60983 -1.34205,0.92769 -0.7417,0.31459 -2.35729,0.53377 -2.35729,0.53377"
       id="path27323-6-9-2"
       sodipodi:nodetypes="csc" />
    <path
       style="fill:none;stroke:#000000;stroke-width:0.7;stroke-linecap:butt;stroke-linejoin:miter;stroke-miterlimit:4;stroke-dasharray:none;stroke-opacity:1"
       d="m 128.69839,12.13085 c 8.81285,-0.002 8.81285,-0.002 8.81285,-0.002"
       id="path29082" />
    <path
       style="fill:none;stroke:#000000;stroke-width:0.7;stroke-linecap:butt;stroke-linejoin:miter;stroke-miterlimit:4;stroke-dasharray:none;stroke-opacity:1"
       d="m 128.76451,20.21034 c 8.81285,-0.002 8.81285,-0.002 8.81285,-0.002"
       id="path29082-7" />
    <path
       style="fill:none;stroke:#000000;stroke-width:0.7;stroke-linecap:butt;stroke-linejoin:miter;stroke-miterlimit:4;stroke-dasharray:none;stroke-opacity:1"
       d="m 128.79416,14.18142 c 8.81285,-0.002 8.81285,-0.002 8.81285,-0.002"
       id="path29082-0" />
    <path
       style="fill:none;stroke:#000000;stroke-width:0.7;stroke-linecap:butt;stroke-linejoin:miter;stroke-miterlimit:4;stroke-dasharray:none;stroke-opacity:1"
       d="m 128.77434,16.19521 c 8.81285,-0.002 8.81285,-0.002 8.81285,-0.002"
       id="path29082-0-3" />
    <path
       style="fill:none;stroke:#000000;stroke-width:0.7;stroke-linecap:butt;stroke-linejoin:miter;stroke-miterlimit:4;stroke-dasharray:none;stroke-opacity:1"
       d="m 128.75288,18.19095 c 8.81285,-0.002 8.81285,-0.002 8.81285,-0.002"
       id="path29082-9" />
  </g>
</svg>
